<?xml version="1.0" encoding="UTF-8" standalone="no"?>
<!DOCTYPE svg PUBLIC "-//W3C//DTD SVG 1.1//EN" "http://www.w3.org/Graphics/SVG/1.1/DTD/svg11.dtd">
<svg width="100%" height="100%" viewBox="0 0 512 512" version="1.1" xmlns="http://www.w3.org/2000/svg" xmlns:xlink="http://www.w3.org/1999/xlink" xml:space="preserve" xmlns:serif="http://www.serif.com/" style="fill-rule:evenodd;clip-rule:evenodd;stroke-linejoin:round;stroke-miterlimit:2;">
    <path d="M88.5,30L88.5,482L423.5,482L423.5,30L88.5,30ZM330.629,409.883C319.999,409.883 310.901,406.139 303.333,398.65C295.765,391.162 292.02,382.063 292.099,371.353C292.02,360.881 295.765,351.92 303.333,344.471C310.901,337.022 319.999,333.298 330.629,333.298C340.787,333.298 349.728,337.022 357.453,344.471C365.178,351.92 369.081,360.881 369.159,371.353C369.081,378.486 367.238,384.967 363.632,390.796C360.026,396.625 355.333,401.264 349.554,404.711C343.774,408.159 337.466,409.883 330.629,409.883ZM142.841,405.616L142.841,102.117L349.954,102.117L349.954,161.748L216.106,161.748L216.106,223.992L336.795,223.992L336.795,283.623L216.106,283.623L216.106,405.616L142.841,405.616Z"/>
</svg>
